<svg xmlns="http://www.w3.org/2000/svg" xmlns:xlink="http://www.w3.org/1999/xlink" width="500" zoomAndPan="magnify" viewBox="0 0 375 374.999991" height="500" preserveAspectRatio="xMidYMid meet" version="1.0"><defs><g/><clipPath id="50a9df961e"><path d="M 226.363281 131.867188 L 311.902344 131.867188 L 311.902344 176.933594 L 226.363281 176.933594 Z M 226.363281 131.867188 " clip-rule="nonzero"/></clipPath><clipPath id="07b331a23f"><path d="M 63.09375 131.867188 L 148.410156 131.867188 L 148.410156 176.933594 L 63.09375 176.933594 Z M 63.09375 131.867188 " clip-rule="nonzero"/></clipPath><clipPath id="881da8a9c9"><path d="M 154 165 L 222 165 L 222 171.886719 L 154 171.886719 Z M 154 165 " clip-rule="nonzero"/></clipPath><clipPath id="8360145b4a"><path d="M 182 91.636719 L 193 91.636719 L 193 102 L 182 102 Z M 182 91.636719 " clip-rule="nonzero"/></clipPath><clipPath id="b2a1970d18"><path d="M 231 121 L 236.539062 121 L 236.539062 128 L 231 128 Z M 231 121 " clip-rule="nonzero"/></clipPath><clipPath id="250842dee1"><path d="M 138.289062 121 L 144 121 L 144 128 L 138.289062 128 Z M 138.289062 121 " clip-rule="nonzero"/></clipPath></defs><g clip-path="url(#50a9df961e)"><path fill="#f3d04d" d="M 262.84375 170.6875 C 262.574219 171.53125 262.140625 172.320312 261.570312 172.984375 C 261.007812 173.652344 260.261719 174.15625 259.464844 174.511719 C 257.875 175.214844 255.90625 175.203125 254.496094 174.160156 C 253.074219 173.121094 252.527344 171.222656 252.722656 169.492188 C 252.910156 167.742188 253.742188 166.046875 255.105469 164.929688 C 256.449219 163.777344 258.125 163.074219 259.851562 162.667969 C 260.425781 162.53125 261.011719 162.433594 261.597656 162.347656 C 262.167969 163.3125 262.628906 164.34375 262.914062 165.425781 C 263.355469 167.144531 263.390625 169.003906 262.84375 170.6875 Z M 306.484375 140 C 305.644531 139.628906 304.746094 139.398438 303.828125 139.363281 C 302.910156 139.328125 301.992188 139.484375 301.132812 139.796875 C 299.417969 140.417969 297.898438 141.652344 297.058594 143.296875 C 296.226562 144.917969 296.097656 147.027344 297.175781 148.589844 C 297.71875 149.359375 298.5625 149.847656 299.425781 150.125 C 300.300781 150.40625 301.203125 150.515625 302.097656 150.609375 L 302.121094 150.398438 C 301.234375 150.261719 300.347656 150.105469 299.53125 149.792969 C 298.722656 149.488281 297.992188 149 297.566406 148.308594 C 296.6875 146.921875 296.867188 145.015625 297.667969 143.613281 C 298.476562 142.179688 299.890625 141.125 301.433594 140.640625 C 302.984375 140.136719 304.621094 140.285156 306.039062 141.007812 C 307.457031 141.703125 308.660156 142.871094 309.453125 144.261719 C 310.257812 145.660156 310.617188 147.234375 310.539062 148.84375 C 310.472656 150.445312 309.992188 152.035156 309.21875 153.464844 C 308.449219 154.90625 307.390625 156.152344 306.128906 157.203125 C 304.867188 158.25 303.421875 159.089844 301.882812 159.742188 C 301.113281 160.066406 300.328125 160.363281 299.523438 160.605469 C 298.722656 160.867188 297.878906 161.023438 297.054688 161.21875 C 293.726562 161.921875 290.246094 161.945312 286.753906 161.742188 C 283.257812 161.53125 279.714844 161.074219 276.117188 160.667969 C 272.523438 160.257812 268.855469 159.902344 265.109375 159.996094 C 264.132812 160.011719 263.132812 160.066406 262.121094 160.183594 C 261.988281 160.015625 261.867188 159.835938 261.730469 159.675781 C 259.15625 156.617188 255.460938 154.691406 251.675781 154.070312 C 247.886719 153.425781 244.007812 153.894531 240.496094 155.242188 C 236.980469 156.601562 233.898438 158.867188 231.433594 161.617188 C 230.195312 162.992188 229.144531 164.527344 228.28125 166.148438 C 228.136719 166.421875 228.011719 166.703125 227.878906 166.980469 C 228.839844 163.550781 230.210938 160.175781 232.601562 157.53125 C 235.269531 154.546875 239.007812 152.738281 242.839844 151.773438 C 246.703125 150.777344 250.722656 150.671875 254.703125 150.769531 C 258.691406 150.867188 262.683594 151.179688 266.699219 151.042969 C 268.703125 150.957031 270.722656 150.722656 272.660156 150.132812 C 274.59375 149.546875 276.433594 148.570312 277.925781 147.179688 C 279.414062 145.804688 280.574219 144.019531 281.058594 142.019531 C 281.546875 140.039062 281.398438 137.875 280.503906 136.023438 C 279.621094 134.167969 277.925781 132.738281 275.972656 132.15625 C 274.027344 131.542969 271.761719 131.910156 270.203125 133.269531 C 269.425781 133.933594 268.824219 134.835938 268.601562 135.851562 C 268.375 136.855469 268.480469 137.945312 268.957031 138.867188 C 269.855469 140.78125 272.578125 141.496094 274.246094 140.164062 L 274.117188 140 C 273.300781 140.535156 272.273438 140.574219 271.425781 140.265625 C 270.5625 139.972656 269.894531 139.34375 269.585938 138.542969 C 269.269531 137.753906 269.246094 136.84375 269.484375 136.054688 C 269.722656 135.273438 270.25 134.597656 270.910156 134.109375 C 272.25 133.101562 274.03125 132.921875 275.570312 133.503906 C 277.117188 134.074219 278.425781 135.265625 279.035156 136.738281 C 279.671875 138.226562 279.726562 139.984375 279.296875 141.582031 C 278.867188 143.164062 277.886719 144.605469 276.605469 145.726562 C 275.316406 146.859375 273.785156 147.6875 272.074219 148.183594 C 270.367188 148.683594 268.519531 148.890625 266.613281 148.953125 C 262.777344 149.125 258.800781 148.839844 254.746094 148.800781 C 252.71875 148.792969 250.664062 148.847656 248.601562 149.03125 C 246.535156 149.214844 244.453125 149.574219 242.4375 150.171875 C 240.421875 150.757812 238.441406 151.558594 236.617188 152.648438 C 234.804688 153.757812 233.125 155.125 231.785156 156.789062 C 230.449219 158.457031 229.46875 160.339844 228.773438 162.277344 C 228.074219 164.21875 227.640625 166.214844 227.335938 168.214844 C 226.945312 169.214844 226.609375 170.238281 226.363281 171.277344 L 226.5625 171.335938 C 228.574219 164.402344 234.101562 158.660156 240.859375 156.285156 C 244.226562 155.09375 247.910156 154.734375 251.417969 155.417969 C 254.824219 156.054688 258.027344 157.816406 260.269531 160.476562 C 259.972656 160.53125 259.671875 160.585938 259.375 160.65625 C 257.445312 161.125 255.449219 161.941406 253.785156 163.378906 C 253.582031 163.558594 253.386719 163.753906 253.1875 163.941406 C 252.992188 164.152344 252.796875 164.375 252.609375 164.597656 C 252.4375 164.828125 252.265625 165.0625 252.109375 165.300781 C 251.964844 165.546875 251.8125 165.792969 251.683594 166.042969 C 251.171875 167.058594 250.851562 168.148438 250.738281 169.28125 C 250.625 170.414062 250.71875 171.601562 251.128906 172.753906 C 251.53125 173.90625 252.304688 175.007812 253.335938 175.75 C 257.808594 178.761719 263.449219 175.589844 264.574219 171.257812 C 265.226562 169.148438 265.148438 166.972656 264.601562 164.980469 C 264.320312 163.984375 263.921875 163.042969 263.4375 162.15625 C 264.011719 162.121094 264.585938 162.09375 265.164062 162.085938 C 272.34375 161.875 279.453125 163.359375 286.65625 163.707031 C 290.25 163.867188 293.898438 163.800781 297.4375 163.007812 C 300.964844 162.265625 304.425781 160.828125 307.183594 158.425781 C 309.933594 156.058594 311.824219 152.5625 311.898438 148.867188 C 312.035156 145.1875 309.84375 141.507812 306.484375 140 " fill-opacity="1" fill-rule="nonzero"/></g><g clip-path="url(#07b331a23f)"><path fill="#f3d04d" d="M 112.15625 170.6875 C 112.421875 171.53125 112.859375 172.320312 113.425781 172.984375 C 113.992188 173.652344 114.738281 174.15625 115.535156 174.511719 C 117.121094 175.214844 119.089844 175.203125 120.5 174.160156 C 121.921875 173.121094 122.472656 171.222656 122.273438 169.492188 C 122.085938 167.742188 121.257812 166.046875 119.894531 164.929688 C 118.550781 163.777344 116.871094 163.074219 115.144531 162.667969 C 114.570312 162.53125 113.984375 162.433594 113.398438 162.347656 C 112.828125 163.3125 112.367188 164.34375 112.085938 165.425781 C 111.640625 167.144531 111.605469 169.003906 112.15625 170.6875 Z M 68.515625 140 C 69.351562 139.628906 70.253906 139.398438 71.167969 139.363281 C 72.085938 139.328125 73.003906 139.484375 73.863281 139.796875 C 75.578125 140.417969 77.097656 141.652344 77.941406 143.296875 C 78.769531 144.917969 78.898438 147.027344 77.820312 148.589844 C 77.28125 149.359375 76.433594 149.847656 75.570312 150.125 C 74.699219 150.40625 73.792969 150.515625 72.898438 150.609375 L 72.875 150.398438 C 73.761719 150.261719 74.648438 150.105469 75.464844 149.792969 C 76.273438 149.488281 77.003906 149 77.429688 148.308594 C 78.308594 146.921875 78.132812 145.015625 77.328125 143.613281 C 76.519531 142.179688 75.105469 141.125 73.566406 140.640625 C 72.011719 140.136719 70.375 140.285156 68.957031 141.007812 C 67.539062 141.703125 66.335938 142.871094 65.546875 144.261719 C 64.738281 145.660156 64.378906 147.234375 64.457031 148.84375 C 64.527344 150.445312 65.007812 152.035156 65.777344 153.464844 C 66.550781 154.90625 67.605469 156.152344 68.871094 157.203125 C 70.128906 158.25 71.578125 159.089844 73.113281 159.742188 C 73.882812 160.066406 74.667969 160.363281 75.476562 160.605469 C 76.273438 160.867188 77.117188 161.023438 77.941406 161.21875 C 81.269531 161.921875 84.753906 161.945312 88.242188 161.742188 C 91.742188 161.53125 95.28125 161.074219 98.878906 160.667969 C 102.472656 160.257812 106.140625 159.902344 109.890625 159.996094 C 110.863281 160.011719 111.867188 160.066406 112.878906 160.183594 C 113.007812 160.015625 113.128906 159.835938 113.269531 159.675781 C 115.839844 156.617188 119.535156 154.691406 123.320312 154.070312 C 127.109375 153.425781 130.988281 153.894531 134.503906 155.242188 C 138.015625 156.601562 141.101562 158.867188 143.5625 161.617188 C 144.800781 162.992188 145.851562 164.527344 146.714844 166.148438 C 146.859375 166.421875 146.988281 166.703125 147.117188 166.980469 C 146.160156 163.550781 144.785156 160.175781 142.394531 157.53125 C 139.726562 154.546875 135.988281 152.738281 132.15625 151.773438 C 128.292969 150.777344 124.273438 150.671875 120.292969 150.769531 C 116.304688 150.867188 112.3125 151.179688 108.296875 151.042969 C 106.292969 150.957031 104.273438 150.722656 102.335938 150.132812 C 100.402344 149.546875 98.5625 148.570312 97.074219 147.179688 C 95.582031 145.804688 94.421875 144.019531 93.9375 142.019531 C 93.449219 140.039062 93.597656 137.875 94.492188 136.023438 C 95.375 134.167969 97.070312 132.738281 99.023438 132.15625 C 100.96875 131.542969 103.234375 131.910156 104.796875 133.269531 C 105.570312 133.933594 106.171875 134.835938 106.394531 135.851562 C 106.621094 136.855469 106.515625 137.945312 106.039062 138.867188 C 105.140625 140.78125 102.421875 141.496094 100.75 140.164062 L 100.882812 140 C 101.699219 140.535156 102.722656 140.574219 103.570312 140.265625 C 104.433594 139.972656 105.101562 139.34375 105.410156 138.542969 C 105.730469 137.753906 105.753906 136.84375 105.511719 136.054688 C 105.273438 135.273438 104.746094 134.597656 104.085938 134.109375 C 102.746094 133.101562 100.964844 132.921875 99.429688 133.503906 C 97.878906 134.074219 96.570312 135.265625 95.960938 136.738281 C 95.328125 138.226562 95.269531 139.984375 95.703125 141.582031 C 96.132812 143.164062 97.109375 144.605469 98.390625 145.726562 C 99.679688 146.859375 101.210938 147.6875 102.921875 148.183594 C 104.628906 148.683594 106.476562 148.890625 108.382812 148.953125 C 112.21875 149.125 116.195312 148.839844 120.25 148.800781 C 122.277344 148.792969 124.332031 148.847656 126.394531 149.03125 C 128.460938 149.214844 130.542969 149.574219 132.558594 150.171875 C 134.578125 150.757812 136.554688 151.558594 138.378906 152.648438 C 140.191406 153.757812 141.871094 155.125 143.210938 156.789062 C 144.550781 158.457031 145.53125 160.339844 146.222656 162.277344 C 146.925781 164.21875 147.355469 166.214844 147.660156 168.214844 C 148.050781 169.214844 148.386719 170.238281 148.632812 171.277344 L 148.433594 171.335938 C 146.421875 164.402344 140.894531 158.660156 134.136719 156.285156 C 130.769531 155.09375 127.089844 154.734375 123.578125 155.417969 C 120.171875 156.054688 116.96875 157.816406 114.726562 160.476562 C 115.023438 160.53125 115.324219 160.585938 115.621094 160.65625 C 117.550781 161.125 119.546875 161.941406 121.210938 163.378906 C 121.414062 163.558594 121.609375 163.753906 121.808594 163.941406 C 122.003906 164.152344 122.199219 164.375 122.390625 164.597656 C 122.558594 164.828125 122.730469 165.0625 122.890625 165.300781 C 123.03125 165.546875 123.183594 165.792969 123.3125 166.042969 C 123.824219 167.058594 124.144531 168.148438 124.261719 169.28125 C 124.371094 170.414062 124.277344 171.601562 123.867188 172.753906 C 123.464844 173.90625 122.695312 175.007812 121.660156 175.75 C 117.1875 178.761719 111.546875 175.589844 110.421875 171.257812 C 109.769531 169.148438 109.847656 166.972656 110.394531 164.980469 C 110.679688 163.984375 111.074219 163.042969 111.558594 162.15625 C 110.984375 162.121094 110.410156 162.09375 109.835938 162.085938 C 102.652344 161.875 95.542969 163.359375 88.339844 163.707031 C 84.746094 163.867188 81.097656 163.800781 77.558594 163.007812 C 74.03125 162.265625 70.570312 160.828125 67.8125 158.425781 C 65.0625 156.058594 63.171875 152.5625 63.097656 148.867188 C 62.960938 145.1875 65.152344 141.507812 68.515625 140 " fill-opacity="1" fill-rule="nonzero"/></g><path fill="#ffd558" d="M 164.074219 128.546875 C 164.046875 128.507812 164.03125 128.460938 164.007812 128.417969 C 163.960938 128.335938 163.925781 128.25 163.890625 128.160156 C 163.882812 128.140625 163.875 128.121094 163.867188 128.101562 C 163.832031 127.902344 163.785156 127.707031 163.722656 127.511719 L 163.71875 127.5 C 163.589844 127.101562 163.195312 126.832031 162.761719 126.878906 C 162.269531 126.933594 161.910156 127.378906 161.960938 127.871094 C 161.972656 127.957031 161.980469 127.992188 161.988281 128.042969 C 161.996094 128.09375 162.007812 128.136719 162.019531 128.179688 C 162.039062 128.265625 162.0625 128.347656 162.089844 128.425781 C 162.089844 128.429688 162.089844 128.429688 162.089844 128.429688 C 162.109375 128.523438 162.128906 128.613281 162.140625 128.707031 C 162.167969 128.929688 162.1875 129.160156 162.183594 129.398438 C 162.183594 129.871094 162.121094 130.367188 162.03125 130.875 C 161.9375 131.386719 161.808594 131.90625 161.664062 132.4375 C 161.519531 132.96875 161.355469 133.507812 161.191406 134.082031 C 161.441406 133.914062 161.667969 133.722656 161.878906 133.515625 C 162.09375 133.3125 162.289062 133.089844 162.476562 132.859375 C 162.847656 132.394531 163.164062 131.878906 163.414062 131.320312 C 163.535156 131.050781 163.640625 130.769531 163.722656 130.480469 C 163.90625 130.59375 164.101562 130.695312 164.292969 130.78125 L 164.710938 130.9375 C 164.847656 130.976562 164.992188 131.007812 165.132812 131.042969 C 165.203125 131.058594 165.269531 131.074219 165.339844 131.085938 C 165.410156 131.097656 165.484375 131.101562 165.554688 131.109375 C 165.695312 131.121094 165.832031 131.140625 165.972656 131.148438 C 166.25 131.148438 166.527344 131.132812 166.796875 131.109375 C 167.066406 131.0625 167.335938 131.007812 167.59375 130.933594 C 167.34375 130.820312 167.101562 130.714844 166.859375 130.625 L 166.171875 130.3125 C 166.0625 130.25 165.953125 130.195312 165.847656 130.140625 C 165.792969 130.113281 165.742188 130.082031 165.6875 130.058594 C 165.636719 130.027344 165.589844 129.992188 165.539062 129.960938 C 165.441406 129.898438 165.34375 129.835938 165.246094 129.78125 L 164.984375 129.574219 C 164.640625 129.304688 164.359375 128.996094 164.148438 128.671875 L 164.074219 128.546875 " fill-opacity="1" fill-rule="nonzero"/><path fill="#ffd558" d="M 231.085938 128.859375 L 231.046875 128.898438 C 230.953125 128.996094 230.832031 129.121094 230.71875 129.230469 L 230.375 129.570312 C 230.140625 129.796875 229.898438 130.019531 229.65625 130.238281 C 229.171875 130.675781 228.671875 131.101562 228.164062 131.511719 C 227.144531 132.335938 226.089844 133.109375 224.996094 133.816406 C 222.8125 135.230469 220.472656 136.382812 218.035156 137.101562 C 215.601562 137.816406 213.066406 138.046875 210.644531 137.636719 C 209.429688 137.433594 208.25 137.074219 207.125 136.574219 C 205.996094 136.074219 204.929688 135.433594 203.921875 134.691406 C 201.90625 133.207031 200.160156 131.3125 198.632812 129.234375 C 197.875 128.195312 197.164062 127.109375 196.492188 125.992188 C 195.828125 124.871094 195.207031 123.71875 194.625 122.546875 C 192.300781 117.835938 190.523438 112.820312 189.050781 107.710938 C 188.898438 107.199219 188.496094 106.761719 187.941406 106.601562 C 187.085938 106.355469 186.1875 106.851562 185.9375 107.710938 C 184.464844 112.816406 182.679688 117.832031 180.355469 122.539062 C 179.773438 123.714844 179.152344 124.867188 178.484375 125.984375 C 177.816406 127.101562 177.105469 128.1875 176.34375 129.226562 C 174.820312 131.300781 173.070312 133.199219 171.054688 134.683594 C 170.050781 135.421875 168.984375 136.066406 167.855469 136.566406 C 166.730469 137.066406 165.550781 137.425781 164.339844 137.628906 C 161.917969 138.042969 159.382812 137.8125 156.949219 137.097656 C 154.515625 136.382812 152.175781 135.226562 149.992188 133.816406 C 148.898438 133.109375 147.84375 132.332031 146.824219 131.511719 C 146.316406 131.097656 145.820312 130.671875 145.335938 130.234375 C 145.09375 130.015625 144.851562 129.792969 144.617188 129.570312 L 144.269531 129.230469 C 144.160156 129.117188 144.039062 128.996094 143.945312 128.894531 L 143.90625 128.855469 C 143.59375 128.523438 143.085938 128.4375 142.671875 128.671875 C 142.191406 128.949219 142.023438 129.566406 142.300781 130.050781 L 146.152344 136.785156 L 150.042969 143.5 C 151.335938 145.742188 152.65625 147.96875 153.964844 150.199219 L 154.949219 151.871094 L 155.945312 153.539062 L 157.941406 156.867188 L 156.25 153.375 L 155.398438 151.628906 L 154.539062 149.886719 C 153.390625 147.570312 152.253906 145.246094 151.085938 142.9375 L 147.601562 136.003906 L 146.714844 134.261719 C 147.359375 134.777344 148.015625 135.273438 148.695312 135.746094 C 150.980469 137.332031 153.472656 138.6875 156.191406 139.5625 C 157.550781 139.996094 158.960938 140.316406 160.402344 140.464844 C 161.84375 140.617188 163.320312 140.597656 164.769531 140.382812 C 166.21875 140.171875 167.644531 139.773438 168.992188 139.207031 C 170.34375 138.640625 171.617188 137.917969 172.789062 137.074219 C 175.144531 135.394531 177.117188 133.304688 178.8125 131.070312 C 180.507812 128.828125 181.929688 126.425781 183.183594 123.964844 C 183.8125 122.730469 184.394531 121.480469 184.941406 120.21875 C 185.488281 118.957031 185.996094 117.679688 186.480469 116.398438 C 186.832031 115.457031 187.171875 114.507812 187.492188 113.558594 C 187.816406 114.507812 188.152344 115.457031 188.507812 116.398438 C 189.464844 118.96875 190.546875 121.5 191.800781 123.964844 C 193.054688 126.429688 194.472656 128.832031 196.171875 131.074219 C 197.867188 133.308594 199.839844 135.398438 202.195312 137.078125 C 203.371094 137.917969 204.640625 138.640625 205.992188 139.207031 C 207.339844 139.769531 208.765625 140.171875 210.214844 140.382812 C 211.667969 140.59375 213.140625 140.613281 214.582031 140.460938 C 216.023438 140.3125 217.433594 139.992188 218.792969 139.554688 C 221.507812 138.679688 224.003906 137.324219 226.289062 135.738281 C 226.972656 135.261719 227.640625 134.761719 228.289062 134.242188 L 227.390625 136.003906 L 223.90625 142.9375 C 222.738281 145.246094 221.597656 147.570312 220.449219 149.890625 L 219.589844 151.628906 L 217.046875 156.867188 L 219.042969 153.539062 L 220.035156 151.871094 L 221.019531 150.195312 C 222.332031 147.964844 223.652344 145.738281 224.941406 143.5 L 228.832031 136.78125 L 232.683594 130.046875 C 232.910156 129.65625 232.847656 129.144531 232.503906 128.820312 C 232.101562 128.4375 231.464844 128.457031 231.085938 128.859375 " fill-opacity="1" fill-rule="nonzero"/><path fill="#ffd558" d="M 209.015625 131.148438 C 209.15625 131.140625 209.292969 131.121094 209.4375 131.109375 C 209.507812 131.101562 209.578125 131.097656 209.648438 131.085938 C 209.71875 131.074219 209.785156 131.058594 209.855469 131.042969 C 209.996094 131.007812 210.140625 130.976562 210.28125 130.9375 L 210.695312 130.78125 C 210.890625 130.695312 211.082031 130.59375 211.265625 130.480469 C 211.351562 130.769531 211.453125 131.050781 211.574219 131.320312 C 211.824219 131.878906 212.140625 132.394531 212.511719 132.859375 C 212.699219 133.089844 212.894531 133.3125 213.109375 133.515625 C 213.320312 133.722656 213.550781 133.914062 213.796875 134.082031 C 213.632812 133.507812 213.46875 132.96875 213.324219 132.4375 C 213.179688 131.90625 213.050781 131.386719 212.957031 130.875 C 212.867188 130.367188 212.804688 129.871094 212.804688 129.398438 C 212.800781 129.160156 212.824219 128.929688 212.847656 128.707031 C 212.863281 128.613281 212.878906 128.523438 212.898438 128.429688 C 212.898438 128.429688 212.898438 128.429688 212.898438 128.425781 C 212.925781 128.347656 212.953125 128.265625 212.972656 128.179688 C 212.980469 128.136719 212.992188 128.09375 213 128.042969 C 213.007812 127.992188 213.019531 127.957031 213.027344 127.871094 C 213.070312 127.457031 212.820312 127.050781 212.40625 126.917969 C 211.929688 126.765625 211.421875 127.027344 211.269531 127.5 L 211.269531 127.511719 C 211.207031 127.707031 211.15625 127.902344 211.121094 128.101562 C 211.113281 128.121094 211.105469 128.140625 211.101562 128.160156 C 211.0625 128.25 211.027344 128.335938 210.980469 128.417969 C 210.957031 128.460938 210.941406 128.507812 210.914062 128.546875 L 210.839844 128.671875 C 210.628906 128.996094 210.347656 129.304688 210.003906 129.574219 L 209.742188 129.78125 C 209.644531 129.835938 209.546875 129.898438 209.449219 129.960938 C 209.398438 129.992188 209.351562 130.027344 209.300781 130.058594 C 209.246094 130.082031 209.195312 130.113281 209.140625 130.140625 C 209.035156 130.195312 208.925781 130.25 208.820312 130.3125 L 208.128906 130.625 C 207.890625 130.714844 207.644531 130.820312 207.394531 130.933594 C 207.652344 131.007812 207.921875 131.0625 208.191406 131.109375 C 208.460938 131.132812 208.738281 131.148438 209.015625 131.148438 " fill-opacity="1" fill-rule="nonzero"/><path fill="#ffd558" d="M 172.070312 156.566406 L 171.167969 156.4375 C 170.566406 156.355469 169.96875 156.25 169.363281 156.164062 C 168.761719 156.082031 168.164062 155.96875 167.5625 155.867188 C 166.960938 155.761719 166.363281 155.644531 165.761719 155.53125 C 163.359375 155.078125 160.972656 154.523438 158.582031 153.863281 L 158.570312 153.859375 C 158.523438 153.847656 158.480469 153.871094 158.460938 153.914062 C 158.441406 153.960938 158.460938 154.015625 158.507812 154.035156 C 163.046875 156.003906 167.863281 157.257812 172.722656 158.128906 C 177.585938 158.988281 182.53125 159.414062 187.472656 159.382812 L 188.398438 159.375 L 188.863281 159.367188 L 189.324219 159.347656 L 191.175781 159.277344 C 191.792969 159.242188 192.410156 159.195312 193.027344 159.152344 L 193.949219 159.085938 L 194.871094 158.996094 C 197.332031 158.777344 199.777344 158.398438 202.210938 157.972656 L 204.027344 157.609375 C 204.328125 157.546875 204.632812 157.496094 204.933594 157.421875 L 207.640625 156.789062 L 209.425781 156.308594 L 210.320312 156.0625 C 210.621094 155.984375 210.910156 155.882812 211.207031 155.792969 L 212.976562 155.242188 C 213.566406 155.070312 214.144531 154.847656 214.726562 154.648438 L 216.476562 154.035156 C 216.519531 154.023438 216.542969 153.976562 216.535156 153.929688 C 216.523438 153.878906 216.476562 153.847656 216.425781 153.859375 L 216.414062 153.863281 C 211.554688 154.917969 206.761719 155.859375 201.945312 156.519531 C 201.34375 156.605469 200.738281 156.65625 200.132812 156.730469 C 199.53125 156.800781 198.929688 156.886719 198.328125 156.933594 C 197.722656 156.988281 197.121094 157.042969 196.519531 157.109375 C 195.914062 157.164062 195.308594 157.199219 194.707031 157.246094 C 192.292969 157.421875 189.878906 157.53125 187.460938 157.53125 C 182.625 157.578125 177.792969 157.265625 172.972656 156.679688 L 172.070312 156.566406 " fill-opacity="1" fill-rule="nonzero"/><g clip-path="url(#881da8a9c9)"><path fill="#ffd558" d="M 221.722656 165.277344 L 221.699219 165.28125 C 215.984375 166.445312 210.402344 167.519531 204.792969 168.242188 C 201.988281 168.5625 199.195312 168.898438 196.386719 169.054688 C 196.035156 169.078125 195.6875 169.101562 195.335938 169.132812 L 194.285156 169.179688 C 193.585938 169.210938 192.882812 169.253906 192.183594 169.273438 L 190.078125 169.335938 L 189.554688 169.347656 L 187.976562 169.347656 C 182.367188 169.378906 176.753906 169.023438 171.148438 168.34375 C 168.34375 168.007812 165.542969 167.578125 162.734375 167.078125 C 161.332031 166.824219 159.933594 166.546875 158.523438 166.257812 L 157.46875 166.035156 L 156.417969 165.789062 C 155.710938 165.640625 155.011719 165.460938 154.308594 165.285156 L 154.277344 165.277344 C 154.214844 165.261719 154.148438 165.292969 154.125 165.351562 C 154.09375 165.421875 154.125 165.5 154.191406 165.53125 C 159.476562 167.894531 165.085938 169.414062 170.753906 170.488281 C 176.429688 171.542969 182.207031 172.085938 187.984375 172.074219 L 189.066406 172.066406 L 189.609375 172.0625 L 190.148438 172.042969 L 192.3125 171.960938 C 193.035156 171.925781 193.753906 171.863281 194.476562 171.816406 L 195.554688 171.738281 L 196.632812 171.628906 C 197.351562 171.550781 198.070312 171.484375 198.785156 171.402344 L 200.933594 171.105469 C 201.289062 171.054688 201.648438 171.015625 202.003906 170.949219 L 203.070312 170.765625 C 203.78125 170.640625 204.496094 170.53125 205.203125 170.390625 L 207.324219 169.949219 C 207.675781 169.871094 208.03125 169.804688 208.382812 169.722656 L 209.433594 169.460938 L 211.535156 168.945312 L 213.617188 168.347656 C 215.007812 167.96875 216.367188 167.480469 217.738281 167.03125 C 218.425781 166.816406 219.097656 166.542969 219.773438 166.292969 L 221.796875 165.535156 C 221.859375 165.511719 221.898438 165.449219 221.882812 165.382812 C 221.867188 165.308594 221.796875 165.261719 221.722656 165.277344 " fill-opacity="1" fill-rule="nonzero"/></g><g clip-path="url(#8360145b4a)"><path fill="#ffd558" d="M 187.496094 101.898438 L 189.308594 98.582031 L 192.625 96.765625 L 189.308594 94.953125 L 187.496094 91.636719 L 185.679688 94.953125 L 182.363281 96.765625 L 185.679688 98.582031 L 187.496094 101.898438 " fill-opacity="1" fill-rule="nonzero"/></g><path fill="#ffd558" d="M 187.496094 142.804688 L 189.308594 139.488281 L 192.625 137.671875 L 189.308594 135.859375 L 187.496094 132.539062 L 185.679688 135.859375 L 182.363281 137.671875 L 185.679688 139.488281 L 187.496094 142.804688 " fill-opacity="1" fill-rule="nonzero"/><g clip-path="url(#b2a1970d18)"><path fill="#ffd558" d="M 235.25 123.714844 L 234.925781 121.574219 L 234.917969 121.535156 L 233.261719 122.988281 L 231.078125 123.316406 L 232.53125 124.976562 L 232.855469 127.117188 L 232.863281 127.15625 L 234.519531 125.703125 L 236.703125 125.375 L 235.25 123.714844 " fill-opacity="1" fill-rule="nonzero"/></g><path fill="#ffd558" d="M 213.035156 125.28125 L 214.382812 123.535156 L 216.460938 122.792969 L 214.714844 121.445312 L 213.972656 119.367188 L 212.625 121.113281 L 210.546875 121.855469 L 212.292969 123.203125 L 213.035156 125.28125 " fill-opacity="1" fill-rule="nonzero"/><g clip-path="url(#250842dee1)"><path fill="#ffd558" d="M 143.910156 123.316406 L 141.726562 122.988281 L 140.070312 121.535156 L 139.742188 123.714844 L 138.289062 125.375 L 140.46875 125.703125 L 142.128906 127.15625 L 142.457031 124.976562 L 143.910156 123.316406 " fill-opacity="1" fill-rule="nonzero"/></g><path fill="#ffd558" d="M 161.929688 125.25 L 161.953125 125.28125 L 162.695312 123.203125 L 164.441406 121.855469 L 162.367188 121.113281 L 161.042969 119.398438 L 161.019531 119.367188 L 160.273438 121.445312 L 158.53125 122.792969 L 160.605469 123.535156 L 161.929688 125.25 " fill-opacity="1" fill-rule="nonzero"/><path fill="#ffd558" d="M 184.671875 164.609375 C 184.671875 166.164062 185.9375 167.433594 187.496094 167.433594 C 189.050781 167.433594 190.316406 166.164062 190.316406 164.609375 C 190.316406 163.054688 189.050781 161.785156 187.496094 161.785156 C 185.9375 161.785156 184.671875 163.054688 184.671875 164.609375 " fill-opacity="1" fill-rule="nonzero"/><path fill="#ffd558" d="M 161.570312 161.710938 C 161.570312 163.269531 162.835938 164.535156 164.394531 164.535156 C 165.949219 164.535156 167.214844 163.269531 167.214844 161.710938 C 167.214844 160.15625 165.949219 158.890625 164.394531 158.890625 C 162.835938 158.890625 161.570312 160.15625 161.570312 161.710938 " fill-opacity="1" fill-rule="nonzero"/><path fill="#ffd558" d="M 210.597656 158.554688 C 209.039062 158.554688 207.773438 159.820312 207.773438 161.375 C 207.773438 162.933594 209.039062 164.199219 210.597656 164.199219 C 212.152344 164.199219 213.417969 162.933594 213.417969 161.375 C 213.417969 159.820312 212.152344 158.554688 210.597656 158.554688 " fill-opacity="1" fill-rule="nonzero"/><g fill="#ffffff" fill-opacity="1"><g transform="translate(78.836627, 226.540533)"><g><path d="M 4.09375 -0.5625 C 5.0625 -0.5625 5.890625 -0.90625 6.578125 -1.59375 C 7.265625 -2.28125 7.628906 -3.113281 7.671875 -4.09375 L 7.671875 -35.453125 C 7.554688 -36.347656 7.160156 -37.101562 6.484375 -37.71875 C 5.816406 -38.332031 5.019531 -38.640625 4.09375 -38.640625 L 3.421875 -38.640625 L 3.359375 -39.203125 L 19.765625 -39.203125 C 20.921875 -39.203125 22.179688 -39.3125 23.546875 -39.53125 C 24.910156 -39.757812 25.875 -39.984375 26.4375 -40.203125 L 26.4375 -33.15625 L 25.875 -33.15625 L 25.875 -34.15625 C 25.875 -35.050781 25.566406 -35.816406 24.953125 -36.453125 C 24.335938 -37.085938 23.597656 -37.425781 22.734375 -37.46875 L 11.3125 -37.46875 L 11.3125 -20.15625 L 20.78125 -20.15625 C 21.519531 -20.195312 22.148438 -20.476562 22.671875 -21 C 23.203125 -21.519531 23.46875 -22.171875 23.46875 -22.953125 L 23.46875 -23.75 L 24.03125 -23.75 L 24.03125 -14.890625 L 23.46875 -14.890625 L 23.46875 -15.734375 C 23.46875 -16.484375 23.210938 -17.117188 22.703125 -17.640625 C 22.203125 -18.160156 21.578125 -18.441406 20.828125 -18.484375 L 11.3125 -18.484375 L 11.3125 -1.734375 L 19.3125 -1.734375 C 22.082031 -1.734375 24.191406 -2.347656 25.640625 -3.578125 C 27.097656 -4.816406 28.3125 -6.648438 29.28125 -9.078125 L 29.84375 -9.078125 L 26.59375 0 L 3.359375 0 L 3.359375 -0.5625 Z M 4.09375 -0.5625 "/></g></g></g><g fill="#ffffff" fill-opacity="1"><g transform="translate(118.536121, 226.540533)"><g><path d="M 42.0625 -38.640625 L 41.5625 -38.640625 C 40.289062 -38.640625 39.132812 -38.132812 38.09375 -37.125 C 37.488281 -36.601562 37.019531 -35.953125 36.6875 -35.171875 L 23.1875 -4.984375 C 21.8125 -1.960938 21.125 -0.0390625 21.125 0.78125 L 20.609375 0.78125 L 4.875 -35.109375 C 4.351562 -36.304688 3.632812 -37.191406 2.71875 -37.765625 C 1.800781 -38.347656 0.878906 -38.640625 -0.046875 -38.640625 L -0.5 -38.640625 L -0.5 -39.203125 L 12.109375 -39.203125 L 12.109375 -38.640625 L 11.59375 -38.640625 C 10.476562 -38.640625 9.734375 -38.117188 9.359375 -37.078125 C 9.285156 -36.847656 9.25 -36.582031 9.25 -36.28125 C 9.25 -35.988281 9.34375 -35.617188 9.53125 -35.171875 L 21.234375 -5.828125 L 33.4375 -35.171875 C 33.582031 -35.617188 33.65625 -36.054688 33.65625 -36.484375 C 33.65625 -36.910156 33.457031 -37.375 33.0625 -37.875 C 32.675781 -38.382812 32.09375 -38.640625 31.3125 -38.640625 L 30.8125 -38.640625 L 30.8125 -39.203125 L 42.0625 -39.203125 Z M 42.0625 -38.640625 "/></g></g></g><g fill="#ffffff" fill-opacity="1"><g transform="translate(167.362336, 226.540533)"><g><path d="M 4.09375 -0.5625 C 5.0625 -0.5625 5.890625 -0.90625 6.578125 -1.59375 C 7.265625 -2.28125 7.628906 -3.113281 7.671875 -4.09375 L 7.671875 -35.453125 C 7.554688 -36.347656 7.160156 -37.101562 6.484375 -37.71875 C 5.816406 -38.332031 5.019531 -38.640625 4.09375 -38.640625 L 3.421875 -38.640625 L 3.359375 -39.203125 L 19.765625 -39.203125 C 20.921875 -39.203125 22.179688 -39.3125 23.546875 -39.53125 C 24.910156 -39.757812 25.875 -39.984375 26.4375 -40.203125 L 26.4375 -33.15625 L 25.875 -33.15625 L 25.875 -34.15625 C 25.875 -35.050781 25.566406 -35.816406 24.953125 -36.453125 C 24.335938 -37.085938 23.597656 -37.425781 22.734375 -37.46875 L 11.3125 -37.46875 L 11.3125 -20.15625 L 20.78125 -20.15625 C 21.519531 -20.195312 22.148438 -20.476562 22.671875 -21 C 23.203125 -21.519531 23.46875 -22.171875 23.46875 -22.953125 L 23.46875 -23.75 L 24.03125 -23.75 L 24.03125 -14.890625 L 23.46875 -14.890625 L 23.46875 -15.734375 C 23.46875 -16.484375 23.210938 -17.117188 22.703125 -17.640625 C 22.203125 -18.160156 21.578125 -18.441406 20.828125 -18.484375 L 11.3125 -18.484375 L 11.3125 -1.734375 L 19.3125 -1.734375 C 22.082031 -1.734375 24.191406 -2.347656 25.640625 -3.578125 C 27.097656 -4.816406 28.3125 -6.648438 29.28125 -9.078125 L 29.84375 -9.078125 L 26.59375 0 L 3.359375 0 L 3.359375 -0.5625 Z M 4.09375 -0.5625 "/></g></g></g><g fill="#ffffff" fill-opacity="1"><g transform="translate(207.061831, 226.540533)"><g><path d="M 43.5625 -38.640625 C 42.632812 -38.640625 41.832031 -38.3125 41.15625 -37.65625 C 40.488281 -37.007812 40.132812 -36.21875 40.09375 -35.28125 L 40.09375 -6.390625 C 40.09375 -4.222656 40.222656 -2.164062 40.484375 -0.21875 L 40.59375 0.78125 L 40.09375 0.78125 L 9.578125 -31.8125 L 9.578125 -3.921875 C 9.609375 -2.609375 10.1875 -1.640625 11.3125 -1.015625 C 11.832031 -0.710938 12.390625 -0.5625 12.984375 -0.5625 L 14.0625 -0.5625 L 14.0625 0 L 2.515625 0 L 2.515625 -0.5625 L 3.578125 -0.5625 C 4.515625 -0.5625 5.316406 -0.882812 5.984375 -1.53125 C 6.660156 -2.1875 7 -3 7 -3.96875 L 7 -33.046875 C 7 -35.316406 6.867188 -37.347656 6.609375 -39.140625 L 6.5 -40.046875 L 7.0625 -40.046875 L 37.578125 -7.453125 L 37.578125 -35.21875 C 37.535156 -36.195312 37.175781 -37.007812 36.5 -37.65625 C 35.832031 -38.3125 35.035156 -38.640625 34.109375 -38.640625 L 33.046875 -38.640625 L 33.046875 -39.203125 L 44.578125 -39.203125 L 44.578125 -38.640625 Z M 43.5625 -38.640625 "/></g></g></g><g fill="#ffffff" fill-opacity="1"><g transform="translate(261.543257, 226.540533)"><g><path d="M 32.984375 -34.21875 C 32.984375 -35.113281 32.664062 -35.882812 32.03125 -36.53125 C 31.394531 -37.1875 30.648438 -37.535156 29.796875 -37.578125 L 19.15625 -37.578125 L 19.15625 -4.03125 C 19.1875 -3.0625 19.546875 -2.238281 20.234375 -1.5625 C 20.929688 -0.894531 21.765625 -0.5625 22.734375 -0.5625 L 23.46875 -0.5625 L 23.46875 0 L 11.203125 0 L 11.203125 -0.5625 L 11.921875 -0.5625 C 12.898438 -0.5625 13.734375 -0.894531 14.421875 -1.5625 C 15.109375 -2.238281 15.472656 -3.039062 15.515625 -3.96875 L 15.515625 -37.578125 L 4.875 -37.578125 C 3.976562 -37.535156 3.222656 -37.1875 2.609375 -36.53125 C 1.992188 -35.882812 1.6875 -35.113281 1.6875 -34.21875 L 1.6875 -33.265625 L 1.125 -33.203125 L 1.125 -40.265625 C 1.675781 -40.035156 2.644531 -39.804688 4.03125 -39.578125 C 5.414062 -39.359375 6.6875 -39.25 7.84375 -39.25 L 26.765625 -39.25 C 28.597656 -39.25 30.117188 -39.390625 31.328125 -39.671875 C 32.546875 -39.953125 33.285156 -40.148438 33.546875 -40.265625 L 33.546875 -33.203125 L 32.984375 -33.265625 Z M 32.984375 -34.21875 "/></g></g></g><g fill="#ffd558" fill-opacity="1"><g transform="translate(67.481449, 256.851929)"><g><path d="M 19.46875 -0.21875 L 19.8125 -0.21875 L 19.8125 0 L 15.109375 0 L 15.109375 -0.1875 L 15.4375 -0.1875 C 15.6875 -0.1875 15.894531 -0.285156 16.0625 -0.484375 C 16.238281 -0.679688 16.3125 -0.894531 16.28125 -1.125 L 15.3125 -12 L 10.765625 -1.90625 C 10.359375 -1.019531 10.113281 -0.285156 10.03125 0.296875 L 9.8125 0.296875 L 4.28125 -11.703125 L 3.359375 -1.125 C 3.328125 -0.894531 3.394531 -0.679688 3.5625 -0.484375 C 3.738281 -0.285156 3.941406 -0.1875 4.171875 -0.1875 L 4.515625 -0.1875 L 4.515625 0 L 0.328125 0 L 0.328125 -0.21875 L 0.671875 -0.21875 C 1.078125 -0.21875 1.425781 -0.335938 1.71875 -0.578125 C 2.007812 -0.828125 2.1875 -1.160156 2.25 -1.578125 L 3.875 -15.4375 L 4.09375 -15.4375 L 10.125 -2.40625 L 16.03125 -15.4375 L 16.21875 -15.4375 L 17.890625 -1.578125 C 17.953125 -1.003906 18.238281 -0.601562 18.75 -0.375 C 18.96875 -0.269531 19.207031 -0.21875 19.46875 -0.21875 Z M 19.46875 -0.21875 "/></g></g></g><g fill="#ffd558" fill-opacity="1"><g transform="translate(96.168505, 256.851929)"><g><path d="M 15.484375 -0.21875 L 15.65625 -0.21875 L 15.65625 0 L 10.78125 0 L 10.78125 -0.21875 L 10.984375 -0.21875 C 11.285156 -0.21875 11.507812 -0.3125 11.65625 -0.5 C 11.8125 -0.695312 11.890625 -0.878906 11.890625 -1.046875 C 11.890625 -1.222656 11.859375 -1.398438 11.796875 -1.578125 L 10.421875 -5.25 L 4.578125 -5.25 L 3.125 -1.5625 C 3.070312 -1.382812 3.046875 -1.210938 3.046875 -1.046875 C 3.046875 -0.878906 3.117188 -0.695312 3.265625 -0.5 C 3.421875 -0.3125 3.648438 -0.21875 3.953125 -0.21875 L 4.140625 -0.21875 L 4.140625 0 L -0.203125 0 L -0.203125 -0.21875 L 0 -0.21875 C 0.351562 -0.21875 0.703125 -0.332031 1.046875 -0.5625 C 1.398438 -0.789062 1.679688 -1.128906 1.890625 -1.578125 L 6.78125 -13.21875 C 7.3125 -14.382812 7.578125 -15.125 7.578125 -15.4375 L 7.78125 -15.4375 L 13.578125 -1.578125 C 13.773438 -1.128906 14.046875 -0.789062 14.390625 -0.5625 C 14.742188 -0.332031 15.109375 -0.21875 15.484375 -0.21875 Z M 4.84375 -5.90625 L 10.15625 -5.90625 L 7.5625 -12.84375 Z M 4.84375 -5.90625 "/></g></g></g><g fill="#ffd558" fill-opacity="1"><g transform="translate(120.121689, 256.851929)"><g><path d="M 16.828125 -14.921875 C 16.460938 -14.921875 16.148438 -14.796875 15.890625 -14.546875 C 15.628906 -14.296875 15.492188 -13.988281 15.484375 -13.625 L 15.484375 -2.46875 C 15.484375 -1.632812 15.535156 -0.84375 15.640625 -0.09375 L 15.671875 0.296875 L 15.484375 0.296875 L 3.703125 -12.28125 L 3.703125 -1.515625 C 3.710938 -1.003906 3.9375 -0.628906 4.375 -0.390625 C 4.570312 -0.273438 4.785156 -0.21875 5.015625 -0.21875 L 5.421875 -0.21875 L 5.421875 0 L 0.96875 0 L 0.96875 -0.21875 L 1.390625 -0.21875 C 1.742188 -0.21875 2.050781 -0.34375 2.3125 -0.59375 C 2.570312 -0.84375 2.703125 -1.15625 2.703125 -1.53125 L 2.703125 -12.765625 C 2.703125 -13.640625 2.648438 -14.421875 2.546875 -15.109375 L 2.515625 -15.46875 L 2.71875 -15.46875 L 14.515625 -2.875 L 14.515625 -13.609375 C 14.492188 -13.984375 14.351562 -14.296875 14.09375 -14.546875 C 13.832031 -14.796875 13.523438 -14.921875 13.171875 -14.921875 L 12.765625 -14.921875 L 12.765625 -15.140625 L 17.21875 -15.140625 L 17.21875 -14.921875 Z M 16.828125 -14.921875 "/></g></g></g><g fill="#ffd558" fill-opacity="1"><g transform="translate(146.863312, 256.851929)"><g><path d="M 15.484375 -0.21875 L 15.65625 -0.21875 L 15.65625 0 L 10.78125 0 L 10.78125 -0.21875 L 10.984375 -0.21875 C 11.285156 -0.21875 11.507812 -0.3125 11.65625 -0.5 C 11.8125 -0.695312 11.890625 -0.878906 11.890625 -1.046875 C 11.890625 -1.222656 11.859375 -1.398438 11.796875 -1.578125 L 10.421875 -5.25 L 4.578125 -5.25 L 3.125 -1.5625 C 3.070312 -1.382812 3.046875 -1.210938 3.046875 -1.046875 C 3.046875 -0.878906 3.117188 -0.695312 3.265625 -0.5 C 3.421875 -0.3125 3.648438 -0.21875 3.953125 -0.21875 L 4.140625 -0.21875 L 4.140625 0 L -0.203125 0 L -0.203125 -0.21875 L 0 -0.21875 C 0.351562 -0.21875 0.703125 -0.332031 1.046875 -0.5625 C 1.398438 -0.789062 1.679688 -1.128906 1.890625 -1.578125 L 6.78125 -13.21875 C 7.3125 -14.382812 7.578125 -15.125 7.578125 -15.4375 L 7.78125 -15.4375 L 13.578125 -1.578125 C 13.773438 -1.128906 14.046875 -0.789062 14.390625 -0.5625 C 14.742188 -0.332031 15.109375 -0.21875 15.484375 -0.21875 Z M 4.84375 -5.90625 L 10.15625 -5.90625 L 7.5625 -12.84375 Z M 4.84375 -5.90625 "/></g></g></g><g fill="#ffd558" fill-opacity="1"><g transform="translate(170.816498, 256.851929)"><g><path d="M 9.0625 0.296875 C 6.75 0.285156 4.875 -0.4375 3.4375 -1.875 C 2.007812 -3.320312 1.296875 -5.21875 1.296875 -7.5625 C 1.296875 -9.914062 2.007812 -11.816406 3.4375 -13.265625 C 4.875 -14.710938 6.75 -15.4375 9.0625 -15.4375 C 11.050781 -15.4375 12.800781 -14.945312 14.3125 -13.96875 L 14.75 -10.921875 L 14.546875 -10.921875 C 14.234375 -12.160156 13.597656 -13.113281 12.640625 -13.78125 C 11.679688 -14.457031 10.488281 -14.796875 9.0625 -14.796875 C 7.226562 -14.796875 5.742188 -14.128906 4.609375 -12.796875 C 3.484375 -11.472656 2.921875 -9.726562 2.921875 -7.5625 C 2.921875 -5.40625 3.484375 -3.664062 4.609375 -2.34375 C 5.742188 -1.03125 7.226562 -0.363281 9.0625 -0.34375 C 10 -0.34375 10.890625 -0.507812 11.734375 -0.84375 C 12.578125 -1.175781 13.316406 -1.640625 13.953125 -2.234375 L 13.953125 -6.0625 C 13.953125 -6.375 13.851562 -6.613281 13.65625 -6.78125 C 13.457031 -6.945312 13.1875 -7.03125 12.84375 -7.03125 L 12.5 -7.03125 L 12.5 -7.25 L 16.734375 -7.25 L 16.734375 -7.03125 L 16.40625 -7.03125 C 16.050781 -7.03125 15.78125 -6.945312 15.59375 -6.78125 C 15.40625 -6.613281 15.316406 -6.375 15.328125 -6.0625 L 15.328125 -2.484375 C 14.953125 -1.992188 14.503906 -1.550781 13.984375 -1.15625 C 13.472656 -0.769531 12.78125 -0.429688 11.90625 -0.140625 C 11.03125 0.148438 10.082031 0.296875 9.0625 0.296875 Z M 9.0625 0.296875 "/></g></g></g><g fill="#ffd558" fill-opacity="1"><g transform="translate(196.628647, 256.851929)"><g><path d="M 1.578125 -0.21875 C 1.953125 -0.21875 2.269531 -0.347656 2.53125 -0.609375 C 2.800781 -0.878906 2.945312 -1.203125 2.96875 -1.578125 L 2.96875 -13.6875 C 2.914062 -14.03125 2.757812 -14.320312 2.5 -14.5625 C 2.25 -14.800781 1.941406 -14.921875 1.578125 -14.921875 L 1.3125 -14.921875 L 1.296875 -15.140625 L 7.640625 -15.140625 C 8.078125 -15.140625 8.554688 -15.179688 9.078125 -15.265625 C 9.609375 -15.347656 9.984375 -15.4375 10.203125 -15.53125 L 10.203125 -12.796875 L 9.984375 -12.796875 L 9.984375 -13.1875 C 9.984375 -13.53125 9.863281 -13.828125 9.625 -14.078125 C 9.394531 -14.328125 9.113281 -14.457031 8.78125 -14.46875 L 4.375 -14.46875 L 4.375 -7.78125 L 8.015625 -7.78125 C 8.304688 -7.800781 8.550781 -7.910156 8.75 -8.109375 C 8.957031 -8.304688 9.0625 -8.554688 9.0625 -8.859375 L 9.0625 -9.171875 L 9.28125 -9.171875 L 9.28125 -5.75 L 9.0625 -5.75 L 9.0625 -6.078125 C 9.0625 -6.367188 8.960938 -6.613281 8.765625 -6.8125 C 8.578125 -7.007812 8.335938 -7.117188 8.046875 -7.140625 L 4.375 -7.140625 L 4.375 -0.671875 L 7.453125 -0.671875 C 8.523438 -0.671875 9.34375 -0.90625 9.90625 -1.375 C 10.46875 -1.851562 10.9375 -2.5625 11.3125 -3.5 L 11.53125 -3.5 L 10.265625 0 L 1.296875 0 L 1.296875 -0.21875 Z M 1.578125 -0.21875 "/></g></g></g><g fill="#ffd558" fill-opacity="1"><g transform="translate(217.663683, 256.851929)"><g><path d="M 19.46875 -0.21875 L 19.8125 -0.21875 L 19.8125 0 L 15.109375 0 L 15.109375 -0.1875 L 15.4375 -0.1875 C 15.6875 -0.1875 15.894531 -0.285156 16.0625 -0.484375 C 16.238281 -0.679688 16.3125 -0.894531 16.28125 -1.125 L 15.3125 -12 L 10.765625 -1.90625 C 10.359375 -1.019531 10.113281 -0.285156 10.03125 0.296875 L 9.8125 0.296875 L 4.28125 -11.703125 L 3.359375 -1.125 C 3.328125 -0.894531 3.394531 -0.679688 3.5625 -0.484375 C 3.738281 -0.285156 3.941406 -0.1875 4.171875 -0.1875 L 4.515625 -0.1875 L 4.515625 0 L 0.328125 0 L 0.328125 -0.21875 L 0.671875 -0.21875 C 1.078125 -0.21875 1.425781 -0.335938 1.71875 -0.578125 C 2.007812 -0.828125 2.1875 -1.160156 2.25 -1.578125 L 3.875 -15.4375 L 4.09375 -15.4375 L 10.125 -2.40625 L 16.03125 -15.4375 L 16.21875 -15.4375 L 17.890625 -1.578125 C 17.953125 -1.003906 18.238281 -0.601562 18.75 -0.375 C 18.96875 -0.269531 19.207031 -0.21875 19.46875 -0.21875 Z M 19.46875 -0.21875 "/></g></g></g><g fill="#ffd558" fill-opacity="1"><g transform="translate(246.350743, 256.851929)"><g><path d="M 1.578125 -0.21875 C 1.953125 -0.21875 2.269531 -0.347656 2.53125 -0.609375 C 2.800781 -0.878906 2.945312 -1.203125 2.96875 -1.578125 L 2.96875 -13.6875 C 2.914062 -14.03125 2.757812 -14.320312 2.5 -14.5625 C 2.25 -14.800781 1.941406 -14.921875 1.578125 -14.921875 L 1.3125 -14.921875 L 1.296875 -15.140625 L 7.640625 -15.140625 C 8.078125 -15.140625 8.554688 -15.179688 9.078125 -15.265625 C 9.609375 -15.347656 9.984375 -15.4375 10.203125 -15.53125 L 10.203125 -12.796875 L 9.984375 -12.796875 L 9.984375 -13.1875 C 9.984375 -13.53125 9.863281 -13.828125 9.625 -14.078125 C 9.394531 -14.328125 9.113281 -14.457031 8.78125 -14.46875 L 4.375 -14.46875 L 4.375 -7.78125 L 8.015625 -7.78125 C 8.304688 -7.800781 8.550781 -7.910156 8.75 -8.109375 C 8.957031 -8.304688 9.0625 -8.554688 9.0625 -8.859375 L 9.0625 -9.171875 L 9.28125 -9.171875 L 9.28125 -5.75 L 9.0625 -5.75 L 9.0625 -6.078125 C 9.0625 -6.367188 8.960938 -6.613281 8.765625 -6.8125 C 8.578125 -7.007812 8.335938 -7.117188 8.046875 -7.140625 L 4.375 -7.140625 L 4.375 -0.671875 L 7.453125 -0.671875 C 8.523438 -0.671875 9.34375 -0.90625 9.90625 -1.375 C 10.46875 -1.851562 10.9375 -2.5625 11.3125 -3.5 L 11.53125 -3.5 L 10.265625 0 L 1.296875 0 L 1.296875 -0.21875 Z M 1.578125 -0.21875 "/></g></g></g><g fill="#ffd558" fill-opacity="1"><g transform="translate(267.385778, 256.851929)"><g><path d="M 16.828125 -14.921875 C 16.460938 -14.921875 16.148438 -14.796875 15.890625 -14.546875 C 15.628906 -14.296875 15.492188 -13.988281 15.484375 -13.625 L 15.484375 -2.46875 C 15.484375 -1.632812 15.535156 -0.84375 15.640625 -0.09375 L 15.671875 0.296875 L 15.484375 0.296875 L 3.703125 -12.28125 L 3.703125 -1.515625 C 3.710938 -1.003906 3.9375 -0.628906 4.375 -0.390625 C 4.570312 -0.273438 4.785156 -0.21875 5.015625 -0.21875 L 5.421875 -0.21875 L 5.421875 0 L 0.96875 0 L 0.96875 -0.21875 L 1.390625 -0.21875 C 1.742188 -0.21875 2.050781 -0.34375 2.3125 -0.59375 C 2.570312 -0.84375 2.703125 -1.15625 2.703125 -1.53125 L 2.703125 -12.765625 C 2.703125 -13.640625 2.648438 -14.421875 2.546875 -15.109375 L 2.515625 -15.46875 L 2.71875 -15.46875 L 14.515625 -2.875 L 14.515625 -13.609375 C 14.492188 -13.984375 14.351562 -14.296875 14.09375 -14.546875 C 13.832031 -14.796875 13.523438 -14.921875 13.171875 -14.921875 L 12.765625 -14.921875 L 12.765625 -15.140625 L 17.21875 -15.140625 L 17.21875 -14.921875 Z M 16.828125 -14.921875 "/></g></g></g><g fill="#ffd558" fill-opacity="1"><g transform="translate(294.127409, 256.851929)"><g><path d="M 12.734375 -13.21875 C 12.734375 -13.5625 12.609375 -13.859375 12.359375 -14.109375 C 12.117188 -14.359375 11.832031 -14.492188 11.5 -14.515625 L 7.390625 -14.515625 L 7.390625 -1.5625 C 7.410156 -1.1875 7.550781 -0.867188 7.8125 -0.609375 C 8.082031 -0.347656 8.40625 -0.21875 8.78125 -0.21875 L 9.0625 -0.21875 L 9.0625 0 L 4.328125 0 L 4.328125 -0.21875 L 4.609375 -0.21875 C 4.984375 -0.21875 5.300781 -0.347656 5.5625 -0.609375 C 5.832031 -0.867188 5.972656 -1.175781 5.984375 -1.53125 L 5.984375 -14.515625 L 1.875 -14.515625 C 1.53125 -14.492188 1.238281 -14.359375 1 -14.109375 C 0.769531 -13.859375 0.65625 -13.5625 0.65625 -13.21875 L 0.65625 -12.84375 L 0.4375 -12.828125 L 0.4375 -15.546875 C 0.644531 -15.460938 1.015625 -15.375 1.546875 -15.28125 C 2.085938 -15.195312 2.582031 -15.15625 3.03125 -15.15625 L 10.34375 -15.15625 C 11.039062 -15.15625 11.625 -15.207031 12.09375 -15.3125 C 12.5625 -15.425781 12.847656 -15.503906 12.953125 -15.546875 L 12.953125 -12.828125 L 12.734375 -12.84375 Z M 12.734375 -13.21875 "/></g></g></g></svg>